<!--
  Prayer Dome custom icon: latin-cross
  Lucide's `cross` is an equal-armed (Greek/medical) cross. This is the Latin
  (Christian) cross, drawn to Lucide's spec (24x24 grid, 2px stroke, round
  joins, 1px corner radius) so it matches the rest of the set.
-->
<svg xmlns="http://www.w3.org/2000/svg" width="24" height="24" viewBox="0 0 24 24" fill="none" stroke="currentColor" stroke-width="2" stroke-linecap="round" stroke-linejoin="round">
  <path d="M11 2h2a1 1 0 0 1 1 1v4h4a1 1 0 0 1 1 1v2a1 1 0 0 1-1 1h-4v10a1 1 0 0 1-1 1h-2a1 1 0 0 1-1-1V11H6a1 1 0 0 1-1-1V8a1 1 0 0 1 1-1h4V3a1 1 0 0 1 1-1z" />
</svg>
